<svg width="22" height="22" viewBox="0 0 22 22" fill="none" xmlns="http://www.w3.org/2000/svg">
<path d="M22 14.3L18.7 9.9L15.4 14.3H17.4966C17.017 17.0159 14.8148 19.2181 12.1 19.6966V12.1H14.3V9.9H12.1V8.0696C13.7973 7.5647 15.0854 5.9543 15.0854 4.0865C15.0854 1.8326 13.2528 0 11 0C8.7472 0 6.9146 1.8326 6.9146 4.0865C6.9146 5.9543 8.2027 7.5647 9.9 8.0696V9.9H7.7V12.1H9.9V19.6966C7.1841 19.2181 4.9819 17.0159 4.5034 14.3H6.6L3.3 9.9L0 14.3H2.2803C2.8424 18.5735 6.6022 22 11 22C15.3978 22 19.1576 18.5735 19.7197 14.3H22ZM9.1146 4.0865C9.1146 3.047 9.9605 2.2 11 2.2C12.0395 2.2 12.8854 3.047 12.8854 4.0865C12.8854 5.1326 12.0043 6.05 11 6.05C9.9957 6.05 9.1146 5.1326 9.1146 4.0865Z" fill="currentColor"/>
</svg>
