<svg width="1440" height="1016" viewBox="0 0 1440 1016" fill="none" xmlns="http://www.w3.org/2000/svg">
<path d="M660.361 216.688C401.87 55.7916 70.0418 5.25809 -66.0275 4.17106e-05V14.4597C208.989 28.9193 498.804 133.151 682.559 257.438C866.315 381.724 1088.3 500.622 1209.16 378.373C1305.85 280.573 1370.31 256.999 1390.45 257.438C1285.62 249.55 1184.49 412.55 1079.67 404.663C974.841 396.776 983.474 417.808 660.361 216.688Z" fill="#0D0D30"/>
<path d="M711.185 270.609C439.868 82.3708 80.9908 23.2633 -67 17.1289V469.321C83.4573 458.367 424.576 474.358 605.125 626.841C830.811 817.446 1139.12 771.438 1247.65 642.616C1334.47 539.558 1440.04 483.998 1481.97 469.1V270.609C1368.51 240.375 1294.52 302.157 1231.62 359.996C1168.72 417.834 1050.33 505.906 711.185 270.609Z" fill="#B8B8FF"/>
<path d="M612.263 429.637C389.29 232.986 67.4251 175.156 -66.9998 170.775V686.063C24.2611 664.593 283.97 658.099 603.63 804.273C1003.21 986.99 1263.42 797.7 1337.42 725.402C1396.61 667.564 1460.74 639.083 1482.94 632.072V475.645C1334.95 499.306 1321.39 618.927 1135.16 650.475C948.942 682.023 890.979 675.451 612.263 429.637Z" fill="#0D0D30"/>
<path d="M424.809 684.654C243.273 544.79 21.9448 425.695 -66.0275 383.631V943.613C222.554 801.645 424.809 847.653 648.028 923.895C871.247 1000.14 1130.23 971.217 1279.46 816.105C1398.83 692.015 1467.32 667.127 1482.94 670.194V537.429C1331.25 587.38 1316.45 704.372 1110.5 805.589C904.545 906.806 651.728 859.484 424.809 684.654Z" fill="#FFA76C"/>
<path d="M565.4 894.975C336.507 753.008 49.0764 797.263 -66.0275 837.137V864.742C403.843 774.04 486.471 884.459 580.199 922.58C673.926 960.701 757.788 1026.43 946.476 1014.6C1135.16 1002.77 1262.19 894.975 1338.65 812.161C1399.82 745.91 1461.98 713.573 1482.94 705.686V680.71C1399.08 708.315 1267.12 894.975 1154.9 944.927C1042.67 994.878 851.515 1072.43 565.4 894.975Z" fill="#0D0D30"/>
</svg>
