<svg width="1439" height="828" viewBox="0 0 1439 828" fill="none" xmlns="http://www.w3.org/2000/svg">
<g opacity="0.1">
<path d="M675.767 651.131C435.612 782.2 127.321 823.365 0.903637 827.648L0.903636 815.869C256.412 804.09 525.67 719.182 696.391 617.936C867.111 516.69 1073.35 419.834 1185.64 519.42C1275.47 599.089 1335.35 618.293 1354.07 617.936C1256.68 624.361 1162.72 491.579 1065.33 498.004C967.94 504.429 975.96 487.296 675.767 651.131Z" fill="#00007C"/>
<path d="M723.889 548.333C471.818 701.674 138.397 749.824 0.903698 754.821L0.903666 386.459C140.688 395.383 457.61 382.356 625.352 258.141C835.03 102.872 1121.47 140.35 1222.3 245.291C1302.96 329.243 1401.04 374.503 1440 386.639L1440 548.333C1334.59 572.962 1265.84 522.633 1207.41 475.517C1148.97 428.401 1038.98 356.656 723.889 548.333Z" fill="#B8B8FF"/>
<path d="M631.081 477.659C423.924 637.853 124.89 684.963 0.000231548 688.532L0.000194852 268.771C84.7877 286.261 326.075 291.55 623.06 172.475C994.292 23.6309 1236.05 177.829 1304.8 236.724C1359.8 283.84 1419.38 307.041 1440 312.752L1440 440.18C1302.51 420.905 1289.9 323.461 1116.89 297.761C943.878 272.061 890.026 277.415 631.081 477.659Z" fill="#00007C"/>
<path d="M456.923 269.92C288.265 383.855 82.6358 480.872 0.903698 515.138L0.903658 58.9686C269.016 174.617 456.923 137.138 664.309 75.0308C871.694 12.9232 1112.31 36.4812 1250.95 162.838C1361.86 263.923 1425.49 284.198 1440 281.699L1440 389.852C1299.07 349.161 1285.32 253.858 1093.98 171.405C902.63 88.9515 667.746 127.501 456.923 269.92Z" fill="#B8B8FF"/>
<path d="M587.542 98.5888C374.886 214.237 107.843 178.186 0.903809 145.705L0.903807 123.218C437.445 197.104 514.212 107.155 601.291 76.1016C688.37 45.0478 766.283 -8.49317 941.587 1.14418C1116.89 10.7815 1234.91 98.5887 1305.94 166.05C1362.77 220.02 1420.52 246.362 1440 252.787L1440 273.132C1362.09 250.645 1239.49 98.5887 1135.22 57.8976C1030.96 17.2066 853.362 -45.972 587.542 98.5888Z" fill="#00007C"/>
</g>
</svg>
