<svg width="106" height="106" viewBox="0 0 106 106" fill="none" xmlns="http://www.w3.org/2000/svg">
<path d="M35.3334 13.25C37.5417 13.25 46.375 33.125 46.375 35.3333C46.375 39.75 39.75 44.1667 37.5417 48.5833C35.3334 53 39.75 57.4167 44.1667 61.8333C45.8892 63.5558 53 70.6667 57.4167 68.4583C61.8334 66.25 66.25 59.625 70.6667 59.625C72.875 59.625 92.75 68.4583 92.75 70.6667C92.75 79.5 86.125 86.125 79.5 88.3333C72.875 90.5417 68.4584 90.5417 59.625 88.3333C50.7917 86.125 44.1667 83.9167 33.125 72.875C22.0834 61.8333 19.875 55.2083 17.6667 46.375C15.4584 37.5417 15.4584 33.125 17.6667 26.5C19.875 19.875 26.5 13.25 35.3334 13.25Z" fill="black" stroke="black" stroke-width="2" stroke-linecap="round" stroke-linejoin="round"/>
</svg>
