<svg width="1440" height="503" viewBox="0 0 1440 503" fill="none" xmlns="http://www.w3.org/2000/svg">
<g opacity="0.1">
<path d="M675.579 389.833C391.305 463.588 27.1688 483.835 -122.07 484.759L-121.997 477.86C179.657 474.164 497.994 427.808 700.129 370.649C902.263 313.49 1146.29 259.347 1278.21 319.081C1383.74 366.869 1454.3 378.867 1476.39 378.892C1361.4 381.434 1251.33 302.487 1136.34 305.03C1021.35 307.572 1030.92 297.638 675.579 389.833Z" fill="#00007C"/>
<path d="M733.019 330.228C434.541 416.879 40.6995 440.901 -121.617 442.105L-119.326 226.358C45.6087 233.336 419.758 229.679 618.519 159.029C866.97 70.7172 1204.83 96.2584 1323.19 158.985C1417.87 209.166 1533.36 236.904 1579.26 244.5L1578.26 339.203C1453.68 352.307 1372.85 321.968 1304.18 293.64C1235.5 265.312 1106.12 221.913 733.019 330.228Z" fill="#B8B8FF"/>
<path d="M623.915 287.671C378.408 378.899 25.1603 402.743 -122.271 403.268L-119.661 157.417C-19.6933 168.723 265.069 174.846 616.347 108.826C1055.44 26.3025 1339.84 119.645 1420.61 155.002C1485.23 183.286 1555.41 197.622 1579.72 201.225L1578.93 275.859C1416.76 262.846 1402.49 205.616 1198.44 188.395C994.394 171.174 930.798 173.635 623.915 287.671Z" fill="#00007C"/>
<path d="M419.646 163.817C219.867 228.434 -23.4437 282.679 -120.127 301.724L-117.289 34.5485C198.448 105.644 420.472 86.0477 665.639 52.2711C910.806 18.4944 1194.66 35.308 1357.51 111.052C1487.79 171.647 1562.77 184.319 1579.91 183.038L1579.24 246.382C1413.15 220.783 1397.52 164.792 1172.18 114.102C946.847 63.4114 669.369 83.0456 419.646 163.817Z" fill="#B8B8FF"/>
<path d="M574.883 65.1067C323.162 130.176 8.19148 105.714 -117.829 85.3495L-117.689 72.1789C397.108 120.925 488.277 69.2051 591.251 52.1085C694.225 35.012 786.52 4.62991 993.374 12.4717C1200.23 20.3135 1338.98 73.2207 1422.41 113.623C1489.15 145.945 1557.14 162.097 1580.09 166.104L1579.97 178.02C1488.15 163.873 1344.39 73.2781 1221.57 48.1388C1098.76 22.9995 889.534 -16.2297 574.883 65.1067Z" fill="#00007C"/>
</g>
</svg>
